{
    "asset" : {
        "generator" : "Khronos glTF Blender I/O v1.6.16",
        "version" : "2.0"
    },
    "scene" : 0,
    "scenes" : [
        {
            "name" : "Scene",
            "nodes" : [
                8,
                9,
                10,
                11
            ]
        }
    ],
    "nodes" : [
        {
            "mesh" : 0,
            "name" : "Object_8"
        },
        {
            "children" : [
                0
            ],
            "name" : "Ground_3",
            "scale" : [
                9.949182510375977,
                9.949182510375977,
                9.949182510375977
            ]
        },
        {
            "mesh" : 1,
            "name" : "Object_6"
        },
        {
            "children" : [
                2
            ],
            "name" : "W_Cascade_Trail_W80005_PG_1-L.001_0"
        },
        {
            "children" : [
                3
            ],
            "name" : "W_Cascade_Trail_W80005_PG_1-L_1"
        },
        {
            "children" : [
                4
            ],
            "name" : "WomenShoe_2",
            "rotation" : [
                0.26978984475135803,
                0,
                0,
                0.9629192352294922
            ],
            "scale" : [
                0.548999547958374,
                0.548999547958374,
                0.548999547958374
            ],
            "translation" : [
                0,
                0.4679826498031616,
                -0.006984815467149019
            ]
        },
        {
            "children" : [
                1,
                5
            ],
            "name" : "GLTF_SceneRootNode",
            "rotation" : [
                0.7071068286895752,
                0,
                0,
                0.7071068286895752
            ]
        },
        {
            "children" : [
                6
            ],
            "name" : "root"
        },
        {
            "children" : [
                7
            ],
            "name" : "Sketchfab_model",
            "rotation" : [
                -0.7071068286895752,
                0,
                0,
                0.7071068286895752
            ]
        },
        {
            "name" : "Light",
            "rotation" : [
                0.16907575726509094,
                0.7558803558349609,
                -0.27217137813568115,
                0.570947527885437
            ],
            "translation" : [
                4.076245307922363,
                5.903861999511719,
                -1.0054539442062378
            ]
        },
        {
            "name" : "Camera",
            "rotation" : [
                0.483536034822464,
                0.33687159419059753,
                -0.20870360732078552,
                0.7804827094078064
            ],
            "translation" : [
                7.358891487121582,
                4.958309173583984,
                6.925790786743164
            ]
        },
        {
            "name" : "point1",
            "scale" : [
                0.1122179627418518,
                0.1122179627418518,
                0.1122179627418518
            ],
            "translation" : [
                -0.041832998394966125,
                0.7537405490875244,
                0.4330799877643585
            ]
        }
    ],
    "materials" : [
        {
            "doubleSided" : true,
            "name" : "Material.003",
            "pbrMetallicRoughness" : {
                "baseColorTexture" : {
                    "index" : 0
                },
                "metallicFactor" : 0,
                "roughnessFactor" : 0.8999999761581421
            }
        },
        {
            "name" : "Material.001",
            "normalTexture" : {
                "index" : 1
            },
            "pbrMetallicRoughness" : {
                "baseColorTexture" : {
                    "index" : 2
                },
                "metallicFactor" : 0.03999999910593033,
                "roughnessFactor" : 0.37272727489471436
            }
        }
    ],
    "meshes" : [
        {
            "name" : "Object_1.001",
            "primitives" : [
                {
                    "attributes" : {
                        "POSITION" : 0,
                        "NORMAL" : 1,
                        "TEXCOORD_0" : 2,
                        "TEXCOORD_1" : 3
                    },
                    "indices" : 4,
                    "material" : 0
                }
            ]
        },
        {
            "name" : "Object_0.001",
            "primitives" : [
                {
                    "attributes" : {
                        "POSITION" : 5,
                        "NORMAL" : 6,
                        "TEXCOORD_0" : 7,
                        "TEXCOORD_1" : 8,
                        "TEXCOORD_2" : 9,
                        "TEXCOORD_3" : 10,
                        "TEXCOORD_4" : 11
                    },
                    "indices" : 12,
                    "material" : 1
                }
            ]
        }
    ],
    "textures" : [
        {
            "sampler" : 0,
            "source" : 0
        },
        {
            "sampler" : 0,
            "source" : 1
        },
        {
            "sampler" : 0,
            "source" : 2
        }
    ],
    "images" : [
        {
            "mimeType" : "image/jpeg",
            "name" : "ground",
            "uri" : "textures/ground.jpg"
        },
        {
            "mimeType" : "image/jpeg",
            "name" : "normal",
            "uri" : "textures/normal.jpg"
        },
        {
            "mimeType" : "image/png",
            "name" : "Material.004_baseColor",
            "uri" : "textures/Material_004_baseColor.png"
        }
    ],
    "accessors" : [
        {
            "bufferView" : 0,
            "componentType" : 5126,
            "count" : 29,
            "max" : [
                0.9166667461395264,
                0,
                0.9166667461395264
            ],
            "min" : [
                -0.9166667461395264,
                0,
                -0.9166667461395264
            ],
            "type" : "VEC3"
        },
        {
            "bufferView" : 1,
            "componentType" : 5126,
            "count" : 29,
            "type" : "VEC3"
        },
        {
            "bufferView" : 2,
            "componentType" : 5126,
            "count" : 29,
            "type" : "VEC2"
        },
        {
            "bufferView" : 3,
            "componentType" : 5126,
            "count" : 29,
            "type" : "VEC2"
        },
        {
            "bufferView" : 4,
            "componentType" : 5123,
            "count" : 96,
            "type" : "SCALAR"
        },
        {
            "bufferView" : 5,
            "componentType" : 5126,
            "count" : 15769,
            "max" : [
                0.5660632252693176,
                1.2641386985778809,
                1.4550917148590088
            ],
            "min" : [
                -0.5661436319351196,
                0.008504670113325119,
                -1.4547516107559204
            ],
            "type" : "VEC3"
        },
        {
            "bufferView" : 6,
            "componentType" : 5126,
            "count" : 15769,
            "type" : "VEC3"
        },
        {
            "bufferView" : 7,
            "componentType" : 5126,
            "count" : 15769,
            "type" : "VEC2"
        },
        {
            "bufferView" : 8,
            "componentType" : 5126,
            "count" : 15769,
            "type" : "VEC2"
        },
        {
            "bufferView" : 9,
            "componentType" : 5126,
            "count" : 15769,
            "type" : "VEC2"
        },
        {
            "bufferView" : 10,
            "componentType" : 5126,
            "count" : 15769,
            "type" : "VEC2"
        },
        {
            "bufferView" : 11,
            "componentType" : 5126,
            "count" : 15769,
            "type" : "VEC2"
        },
        {
            "bufferView" : 12,
            "componentType" : 5123,
            "count" : 89997,
            "type" : "SCALAR"
        }
    ],
    "bufferViews" : [
        {
            "buffer" : 0,
            "byteLength" : 348,
            "byteOffset" : 0
        },
        {
            "buffer" : 0,
            "byteLength" : 348,
            "byteOffset" : 348
        },
        {
            "buffer" : 0,
            "byteLength" : 232,
            "byteOffset" : 696
        },
        {
            "buffer" : 0,
            "byteLength" : 232,
            "byteOffset" : 928
        },
        {
            "buffer" : 0,
            "byteLength" : 192,
            "byteOffset" : 1160
        },
        {
            "buffer" : 0,
            "byteLength" : 189228,
            "byteOffset" : 1352
        },
        {
            "buffer" : 0,
            "byteLength" : 189228,
            "byteOffset" : 190580
        },
        {
            "buffer" : 0,
            "byteLength" : 126152,
            "byteOffset" : 379808
        },
        {
            "buffer" : 0,
            "byteLength" : 126152,
            "byteOffset" : 505960
        },
        {
            "buffer" : 0,
            "byteLength" : 126152,
            "byteOffset" : 632112
        },
        {
            "buffer" : 0,
            "byteLength" : 126152,
            "byteOffset" : 758264
        },
        {
            "buffer" : 0,
            "byteLength" : 126152,
            "byteOffset" : 884416
        },
        {
            "buffer" : 0,
            "byteLength" : 179994,
            "byteOffset" : 1010568
        }
    ],
    "samplers" : [
        {
            "magFilter" : 9729,
            "minFilter" : 9987
        }
    ],
    "buffers" : [
        {
            "byteLength" : 1190564,
            "uri" : "shoe.bin"
        }
    ]
}
